# xmcd CD database file generated by OrangeCD 6.3
#
# Track frame offsets:
#	150
#	26104
#	45210
#	87513
#	112767
#	119397
#	138372
#	177240
#	200664
#	240343
#	281927
#	303930
#	327019
#
# Disc length: 4736 seconds
#
# Revision: 4
# Processed by: cddbd v1.5.2PL0 Copyright (c) Steve Scherf et al.
# Submitted via: OrangeCD 6.3
#
DISCID=ac127e0d
DTITLE=Al Di Meola - Takes two to tango
DYEAR=2002
DGENRE=Jazz
TTITLE0=Fugata
TTITLE1=Two To Tango
TTITLE2=Senor Mouse
TTITLE3=Passion, Grace and Fire (ver.1)
TTITLE4=Winterlude Duet No.1
TTITLE5=Carol Of The Bells
TTITLE6=Innamorata
TTITLE7=Mediterranean Sundance
TTITLE8=Tango Suite Part 1
TTITLE9=Elegant Gipsy Suite
TTITLE10=Ave Maria
TTITLE11=Libertango
TTITLE12=Race With Devil on Spanish Highway
EXTD=
EXTT0=
EXTT1=
EXTT2=
EXTT3=
EXTT4=
EXTT5=
EXTT6=
EXTT7=
EXTT8=
EXTT9=
EXTT10=
EXTT11=
EXTT12=
PLAYORDER=
